<svg width="343" height="83" viewBox="0 0 343 83" fill="none" xmlns="http://www.w3.org/2000/svg">
<g clip-path="url(#clip0_2_169)">
<path fill-rule="evenodd" clip-rule="evenodd" d="M41.9092 0H38.1609C4.2272 0 0.0159097 18.3788 0 32.9203V35.6074C0 49.977 4.2272 68.9477 38.11 68.9477H41.8583C50.1409 68.9477 56.6527 67.8197 61.7645 65.9074V82.7302H80.0145V63.96H66.041C78.0464 57.3718 80.0097 45.4571 80.0192 35.6631V32.976C80.0192 18.3438 75.7936 0 41.9092 0ZM61.7693 34.944C61.7693 43.0149 61.7693 53.5981 39.9937 53.5981C18.25 53.5981 18.25 43.0102 18.25 34.9424V33.6505C18.25 25.3886 18.25 15.2574 40.0255 15.2574C61.7693 15.2574 61.7693 25.395 61.7693 33.6521V34.944ZM300.199 0H303.948V0.0047729C337.831 0.0047729 342.058 18.3486 342.058 32.976V35.6631C342.042 50.0295 337.831 68.9461 303.897 68.9461H300.148C266.266 68.9461 262.038 49.977 262.038 35.6074V32.9203C262.054 18.3788 266.266 0 300.199 0ZM302.032 53.5996C323.808 53.5996 323.808 43.0149 323.808 34.944V33.6521C323.808 25.395 323.808 15.2574 302.064 15.2574C280.288 15.2574 280.288 25.3886 280.288 33.6521V34.9424C280.288 43.0086 280.288 53.5996 302.032 53.5996ZM121.314 53.0349C137.44 53.0508 139.324 42.1001 139.324 34.4635H139.329L139.38 34.4794V0.983217H156.841V35.0267C156.822 48.402 156.793 68.7791 122.342 68.7791H119.86C85.1596 68.7791 85.139 48.1856 85.1756 34.8994V0.951398H102.722V34.4317C102.722 42.0683 104.759 53.0349 120.886 53.0349H121.314ZM164.127 0.981626H181.709V67.7831H164.127V0.981626ZM246.477 1.05481L225.71 51.6698L205.096 1.01822L184.62 1.00231L214.015 67.8181L237.13 67.834L265.583 1.0564L246.477 1.05481Z" fill="#141414"/>
</g>
<defs>
<clipPath id="clip0_2_169">
<rect width="342.058" height="82.7302" fill="white"/>
</clipPath>
</defs>
</svg>
